G04 #@! TF.FileFunction,Legend,Top*
%FSLAX46Y46*%
G04 Gerber Fmt 4.6, Leading zero omitted, Abs format (unit mm)*
G04 Created by KiCad (PCBNEW 4.0.5) date Friday, 17 February 2017 'PMt' 12:17:44 PM*
%MOMM*%
%LPD*%
G01*
G04 APERTURE LIST*
%ADD10C,0.100000*%
%ADD11C,0.075000*%
%ADD12C,0.300000*%
%ADD13C,0.127000*%
%ADD14C,0.120000*%
%ADD15C,0.152400*%
%ADD16C,0.150000*%
G04 APERTURE END LIST*
D10*
D11*
X101085714Y-62589571D02*
X101185714Y-62589571D01*
X101228571Y-62746714D02*
X101085714Y-62746714D01*
X101085714Y-62446714D01*
X101228571Y-62446714D01*
X101485714Y-62746714D02*
X101485714Y-62589571D01*
X101471428Y-62561000D01*
X101442857Y-62546714D01*
X101385714Y-62546714D01*
X101357143Y-62561000D01*
X101485714Y-62732429D02*
X101457143Y-62746714D01*
X101385714Y-62746714D01*
X101357143Y-62732429D01*
X101342857Y-62703857D01*
X101342857Y-62675286D01*
X101357143Y-62646714D01*
X101385714Y-62632429D01*
X101457143Y-62632429D01*
X101485714Y-62618143D01*
X101628572Y-62746714D02*
X101628572Y-62546714D01*
X101628572Y-62603857D02*
X101642857Y-62575286D01*
X101657143Y-62561000D01*
X101685714Y-62546714D01*
X101714286Y-62546714D01*
X101771428Y-62546714D02*
X101885714Y-62546714D01*
X101814286Y-62446714D02*
X101814286Y-62703857D01*
X101828571Y-62732429D01*
X101857143Y-62746714D01*
X101885714Y-62746714D01*
X101985715Y-62746714D02*
X101985715Y-62446714D01*
X102114286Y-62746714D02*
X102114286Y-62589571D01*
X102100000Y-62561000D01*
X102071429Y-62546714D01*
X102028572Y-62546714D01*
X102000000Y-62561000D01*
X101985715Y-62575286D01*
X101000000Y-69011000D02*
X101142857Y-69011000D01*
X100971428Y-69096714D02*
X101071428Y-68796714D01*
X101171428Y-69096714D01*
X101400000Y-69082429D02*
X101371429Y-69096714D01*
X101314286Y-69096714D01*
X101285714Y-69082429D01*
X101271429Y-69068143D01*
X101257143Y-69039571D01*
X101257143Y-68953857D01*
X101271429Y-68925286D01*
X101285714Y-68911000D01*
X101314286Y-68896714D01*
X101371429Y-68896714D01*
X101400000Y-68911000D01*
X101485714Y-68896714D02*
X101600000Y-68896714D01*
X101528572Y-68796714D02*
X101528572Y-69053857D01*
X101542857Y-69082429D01*
X101571429Y-69096714D01*
X101600000Y-69096714D01*
X101700001Y-69096714D02*
X101700001Y-68896714D01*
X101700001Y-68796714D02*
X101685715Y-68811000D01*
X101700001Y-68825286D01*
X101714286Y-68811000D01*
X101700001Y-68796714D01*
X101700001Y-68825286D01*
X101814286Y-68896714D02*
X101885715Y-69096714D01*
X101957143Y-68896714D01*
X102185714Y-69082429D02*
X102157143Y-69096714D01*
X102100000Y-69096714D01*
X102071429Y-69082429D01*
X102057143Y-69053857D01*
X102057143Y-68939571D01*
X102071429Y-68911000D01*
X102100000Y-68896714D01*
X102157143Y-68896714D01*
X102185714Y-68911000D01*
X102200000Y-68939571D01*
X102200000Y-68968143D01*
X102057143Y-68996714D01*
X100828572Y-75446714D02*
X100828572Y-75146714D01*
X100942857Y-75146714D01*
X100971429Y-75161000D01*
X100985714Y-75175286D01*
X101000000Y-75203857D01*
X101000000Y-75246714D01*
X100985714Y-75275286D01*
X100971429Y-75289571D01*
X100942857Y-75303857D01*
X100828572Y-75303857D01*
X101257143Y-75446714D02*
X101257143Y-75289571D01*
X101242857Y-75261000D01*
X101214286Y-75246714D01*
X101157143Y-75246714D01*
X101128572Y-75261000D01*
X101257143Y-75432429D02*
X101228572Y-75446714D01*
X101157143Y-75446714D01*
X101128572Y-75432429D01*
X101114286Y-75403857D01*
X101114286Y-75375286D01*
X101128572Y-75346714D01*
X101157143Y-75332429D01*
X101228572Y-75332429D01*
X101257143Y-75318143D01*
X101385715Y-75432429D02*
X101414286Y-75446714D01*
X101471429Y-75446714D01*
X101500001Y-75432429D01*
X101514286Y-75403857D01*
X101514286Y-75389571D01*
X101500001Y-75361000D01*
X101471429Y-75346714D01*
X101428572Y-75346714D01*
X101400001Y-75332429D01*
X101385715Y-75303857D01*
X101385715Y-75289571D01*
X101400001Y-75261000D01*
X101428572Y-75246714D01*
X101471429Y-75246714D01*
X101500001Y-75261000D01*
X101628572Y-75432429D02*
X101657143Y-75446714D01*
X101714286Y-75446714D01*
X101742858Y-75432429D01*
X101757143Y-75403857D01*
X101757143Y-75389571D01*
X101742858Y-75361000D01*
X101714286Y-75346714D01*
X101671429Y-75346714D01*
X101642858Y-75332429D01*
X101628572Y-75303857D01*
X101628572Y-75289571D01*
X101642858Y-75261000D01*
X101671429Y-75246714D01*
X101714286Y-75246714D01*
X101742858Y-75261000D01*
X101885715Y-75446714D02*
X101885715Y-75246714D01*
X101885715Y-75146714D02*
X101871429Y-75161000D01*
X101885715Y-75175286D01*
X101900000Y-75161000D01*
X101885715Y-75146714D01*
X101885715Y-75175286D01*
X102000000Y-75246714D02*
X102071429Y-75446714D01*
X102142857Y-75246714D01*
X102371428Y-75432429D02*
X102342857Y-75446714D01*
X102285714Y-75446714D01*
X102257143Y-75432429D01*
X102242857Y-75403857D01*
X102242857Y-75289571D01*
X102257143Y-75261000D01*
X102285714Y-75246714D01*
X102342857Y-75246714D01*
X102371428Y-75261000D01*
X102385714Y-75289571D01*
X102385714Y-75318143D01*
X102242857Y-75346714D01*
D12*
X125707144Y-89954571D02*
X125707144Y-88454571D01*
X126278572Y-88454571D01*
X126421430Y-88526000D01*
X126492858Y-88597429D01*
X126564287Y-88740286D01*
X126564287Y-88954571D01*
X126492858Y-89097429D01*
X126421430Y-89168857D01*
X126278572Y-89240286D01*
X125707144Y-89240286D01*
X127207144Y-89954571D02*
X127207144Y-88454571D01*
X127921430Y-89954571D02*
X127921430Y-88454571D01*
X128278573Y-88454571D01*
X128492858Y-88526000D01*
X128635716Y-88668857D01*
X128707144Y-88811714D01*
X128778573Y-89097429D01*
X128778573Y-89311714D01*
X128707144Y-89597429D01*
X128635716Y-89740286D01*
X128492858Y-89883143D01*
X128278573Y-89954571D01*
X127921430Y-89954571D01*
X131421430Y-89811714D02*
X131350001Y-89883143D01*
X131135715Y-89954571D01*
X130992858Y-89954571D01*
X130778573Y-89883143D01*
X130635715Y-89740286D01*
X130564287Y-89597429D01*
X130492858Y-89311714D01*
X130492858Y-89097429D01*
X130564287Y-88811714D01*
X130635715Y-88668857D01*
X130778573Y-88526000D01*
X130992858Y-88454571D01*
X131135715Y-88454571D01*
X131350001Y-88526000D01*
X131421430Y-88597429D01*
X132278573Y-89954571D02*
X132135715Y-89883143D01*
X132064287Y-89811714D01*
X131992858Y-89668857D01*
X131992858Y-89240286D01*
X132064287Y-89097429D01*
X132135715Y-89026000D01*
X132278573Y-88954571D01*
X132492858Y-88954571D01*
X132635715Y-89026000D01*
X132707144Y-89097429D01*
X132778573Y-89240286D01*
X132778573Y-89668857D01*
X132707144Y-89811714D01*
X132635715Y-89883143D01*
X132492858Y-89954571D01*
X132278573Y-89954571D01*
X133421430Y-88954571D02*
X133421430Y-89954571D01*
X133421430Y-89097429D02*
X133492858Y-89026000D01*
X133635716Y-88954571D01*
X133850001Y-88954571D01*
X133992858Y-89026000D01*
X134064287Y-89168857D01*
X134064287Y-89954571D01*
X134564287Y-88954571D02*
X135135716Y-88954571D01*
X134778573Y-88454571D02*
X134778573Y-89740286D01*
X134850001Y-89883143D01*
X134992859Y-89954571D01*
X135135716Y-89954571D01*
X135635716Y-89954571D02*
X135635716Y-88954571D01*
X135635716Y-89240286D02*
X135707144Y-89097429D01*
X135778573Y-89026000D01*
X135921430Y-88954571D01*
X136064287Y-88954571D01*
X136778573Y-89954571D02*
X136635715Y-89883143D01*
X136564287Y-89811714D01*
X136492858Y-89668857D01*
X136492858Y-89240286D01*
X136564287Y-89097429D01*
X136635715Y-89026000D01*
X136778573Y-88954571D01*
X136992858Y-88954571D01*
X137135715Y-89026000D01*
X137207144Y-89097429D01*
X137278573Y-89240286D01*
X137278573Y-89668857D01*
X137207144Y-89811714D01*
X137135715Y-89883143D01*
X136992858Y-89954571D01*
X136778573Y-89954571D01*
X138135716Y-89954571D02*
X137992858Y-89883143D01*
X137921430Y-89740286D01*
X137921430Y-88454571D01*
X138921430Y-89954571D02*
X138778572Y-89883143D01*
X138707144Y-89740286D01*
X138707144Y-88454571D01*
X140064286Y-89883143D02*
X139921429Y-89954571D01*
X139635715Y-89954571D01*
X139492858Y-89883143D01*
X139421429Y-89740286D01*
X139421429Y-89168857D01*
X139492858Y-89026000D01*
X139635715Y-88954571D01*
X139921429Y-88954571D01*
X140064286Y-89026000D01*
X140135715Y-89168857D01*
X140135715Y-89311714D01*
X139421429Y-89454571D01*
X140778572Y-89954571D02*
X140778572Y-88954571D01*
X140778572Y-89240286D02*
X140850000Y-89097429D01*
X140921429Y-89026000D01*
X141064286Y-88954571D01*
X141207143Y-88954571D01*
X130242858Y-92504571D02*
X129742858Y-91790286D01*
X129385715Y-92504571D02*
X129385715Y-91004571D01*
X129957143Y-91004571D01*
X130100001Y-91076000D01*
X130171429Y-91147429D01*
X130242858Y-91290286D01*
X130242858Y-91504571D01*
X130171429Y-91647429D01*
X130100001Y-91718857D01*
X129957143Y-91790286D01*
X129385715Y-91790286D01*
X131457143Y-92433143D02*
X131314286Y-92504571D01*
X131028572Y-92504571D01*
X130885715Y-92433143D01*
X130814286Y-92290286D01*
X130814286Y-91718857D01*
X130885715Y-91576000D01*
X131028572Y-91504571D01*
X131314286Y-91504571D01*
X131457143Y-91576000D01*
X131528572Y-91718857D01*
X131528572Y-91861714D01*
X130814286Y-92004571D01*
X132028572Y-91504571D02*
X132385715Y-92504571D01*
X132742857Y-91504571D01*
X134742857Y-91004571D02*
X134885714Y-91004571D01*
X135028571Y-91076000D01*
X135100000Y-91147429D01*
X135171429Y-91290286D01*
X135242857Y-91576000D01*
X135242857Y-91933143D01*
X135171429Y-92218857D01*
X135100000Y-92361714D01*
X135028571Y-92433143D01*
X134885714Y-92504571D01*
X134742857Y-92504571D01*
X134600000Y-92433143D01*
X134528571Y-92361714D01*
X134457143Y-92218857D01*
X134385714Y-91933143D01*
X134385714Y-91576000D01*
X134457143Y-91290286D01*
X134528571Y-91147429D01*
X134600000Y-91076000D01*
X134742857Y-91004571D01*
X135885714Y-92361714D02*
X135957142Y-92433143D01*
X135885714Y-92504571D01*
X135814285Y-92433143D01*
X135885714Y-92361714D01*
X135885714Y-92504571D01*
X137385714Y-92504571D02*
X136528571Y-92504571D01*
X136957143Y-92504571D02*
X136957143Y-91004571D01*
X136814286Y-91218857D01*
X136671428Y-91361714D01*
X136528571Y-91433143D01*
D11*
X101958000Y-91541572D02*
X101943714Y-91570143D01*
X101943714Y-91613000D01*
X101958000Y-91655857D01*
X101986571Y-91684429D01*
X102015143Y-91698714D01*
X102072286Y-91713000D01*
X102115143Y-91713000D01*
X102172286Y-91698714D01*
X102200857Y-91684429D01*
X102229429Y-91655857D01*
X102243714Y-91613000D01*
X102243714Y-91584429D01*
X102229429Y-91541572D01*
X102215143Y-91527286D01*
X102115143Y-91527286D01*
X102115143Y-91584429D01*
X102243714Y-91398714D02*
X101943714Y-91398714D01*
X102243714Y-91227286D01*
X101943714Y-91227286D01*
X102243714Y-91084428D02*
X101943714Y-91084428D01*
X101943714Y-91013000D01*
X101958000Y-90970143D01*
X101986571Y-90941571D01*
X102015143Y-90927286D01*
X102072286Y-90913000D01*
X102115143Y-90913000D01*
X102172286Y-90927286D01*
X102200857Y-90941571D01*
X102229429Y-90970143D01*
X102243714Y-91013000D01*
X102243714Y-91084428D01*
X102562858Y-99816429D02*
X102605715Y-99830714D01*
X102677144Y-99830714D01*
X102705715Y-99816429D01*
X102720001Y-99802143D01*
X102734286Y-99773571D01*
X102734286Y-99745000D01*
X102720001Y-99716429D01*
X102705715Y-99702143D01*
X102677144Y-99687857D01*
X102620001Y-99673571D01*
X102591429Y-99659286D01*
X102577144Y-99645000D01*
X102562858Y-99616429D01*
X102562858Y-99587857D01*
X102577144Y-99559286D01*
X102591429Y-99545000D01*
X102620001Y-99530714D01*
X102691429Y-99530714D01*
X102734286Y-99545000D01*
X102862858Y-99830714D02*
X102862858Y-99530714D01*
X103162857Y-99545000D02*
X103134286Y-99530714D01*
X103091429Y-99530714D01*
X103048572Y-99545000D01*
X103020000Y-99573571D01*
X103005715Y-99602143D01*
X102991429Y-99659286D01*
X102991429Y-99702143D01*
X103005715Y-99759286D01*
X103020000Y-99787857D01*
X103048572Y-99816429D01*
X103091429Y-99830714D01*
X103120000Y-99830714D01*
X103162857Y-99816429D01*
X103177143Y-99802143D01*
X103177143Y-99702143D01*
X103120000Y-99702143D01*
X107515858Y-99816429D02*
X107558715Y-99830714D01*
X107630144Y-99830714D01*
X107658715Y-99816429D01*
X107673001Y-99802143D01*
X107687286Y-99773571D01*
X107687286Y-99745000D01*
X107673001Y-99716429D01*
X107658715Y-99702143D01*
X107630144Y-99687857D01*
X107573001Y-99673571D01*
X107544429Y-99659286D01*
X107530144Y-99645000D01*
X107515858Y-99616429D01*
X107515858Y-99587857D01*
X107530144Y-99559286D01*
X107544429Y-99545000D01*
X107573001Y-99530714D01*
X107644429Y-99530714D01*
X107687286Y-99545000D01*
X107815858Y-99830714D02*
X107815858Y-99530714D01*
X108115857Y-99545000D02*
X108087286Y-99530714D01*
X108044429Y-99530714D01*
X108001572Y-99545000D01*
X107973000Y-99573571D01*
X107958715Y-99602143D01*
X107944429Y-99659286D01*
X107944429Y-99702143D01*
X107958715Y-99759286D01*
X107973000Y-99787857D01*
X108001572Y-99816429D01*
X108044429Y-99830714D01*
X108073000Y-99830714D01*
X108115857Y-99816429D01*
X108130143Y-99802143D01*
X108130143Y-99702143D01*
X108073000Y-99702143D01*
X112558572Y-99716429D02*
X112787143Y-99716429D01*
X112672857Y-99830714D02*
X112672857Y-99602143D01*
X112901429Y-99530714D02*
X113087143Y-99530714D01*
X112987143Y-99645000D01*
X113030001Y-99645000D01*
X113058572Y-99659286D01*
X113072858Y-99673571D01*
X113087143Y-99702143D01*
X113087143Y-99773571D01*
X113072858Y-99802143D01*
X113058572Y-99816429D01*
X113030001Y-99830714D01*
X112944286Y-99830714D01*
X112915715Y-99816429D01*
X112901429Y-99802143D01*
X113215715Y-99802143D02*
X113230000Y-99816429D01*
X113215715Y-99830714D01*
X113201429Y-99816429D01*
X113215715Y-99802143D01*
X113215715Y-99830714D01*
X113330000Y-99530714D02*
X113515714Y-99530714D01*
X113415714Y-99645000D01*
X113458572Y-99645000D01*
X113487143Y-99659286D01*
X113501429Y-99673571D01*
X113515714Y-99702143D01*
X113515714Y-99773571D01*
X113501429Y-99802143D01*
X113487143Y-99816429D01*
X113458572Y-99830714D01*
X113372857Y-99830714D01*
X113344286Y-99816429D01*
X113330000Y-99802143D01*
X110261428Y-99545000D02*
X110232857Y-99530714D01*
X110190000Y-99530714D01*
X110147143Y-99545000D01*
X110118571Y-99573571D01*
X110104286Y-99602143D01*
X110090000Y-99659286D01*
X110090000Y-99702143D01*
X110104286Y-99759286D01*
X110118571Y-99787857D01*
X110147143Y-99816429D01*
X110190000Y-99830714D01*
X110218571Y-99830714D01*
X110261428Y-99816429D01*
X110275714Y-99802143D01*
X110275714Y-99702143D01*
X110218571Y-99702143D01*
X110404286Y-99830714D02*
X110404286Y-99530714D01*
X110575714Y-99830714D01*
X110575714Y-99530714D01*
X110718572Y-99830714D02*
X110718572Y-99530714D01*
X110790000Y-99530714D01*
X110832857Y-99545000D01*
X110861429Y-99573571D01*
X110875714Y-99602143D01*
X110890000Y-99659286D01*
X110890000Y-99702143D01*
X110875714Y-99759286D01*
X110861429Y-99787857D01*
X110832857Y-99816429D01*
X110790000Y-99830714D01*
X110718572Y-99830714D01*
X100101428Y-99545000D02*
X100072857Y-99530714D01*
X100030000Y-99530714D01*
X99987143Y-99545000D01*
X99958571Y-99573571D01*
X99944286Y-99602143D01*
X99930000Y-99659286D01*
X99930000Y-99702143D01*
X99944286Y-99759286D01*
X99958571Y-99787857D01*
X99987143Y-99816429D01*
X100030000Y-99830714D01*
X100058571Y-99830714D01*
X100101428Y-99816429D01*
X100115714Y-99802143D01*
X100115714Y-99702143D01*
X100058571Y-99702143D01*
X100244286Y-99830714D02*
X100244286Y-99530714D01*
X100415714Y-99830714D01*
X100415714Y-99530714D01*
X100558572Y-99830714D02*
X100558572Y-99530714D01*
X100630000Y-99530714D01*
X100672857Y-99545000D01*
X100701429Y-99573571D01*
X100715714Y-99602143D01*
X100730000Y-99659286D01*
X100730000Y-99702143D01*
X100715714Y-99759286D01*
X100701429Y-99787857D01*
X100672857Y-99816429D01*
X100630000Y-99830714D01*
X100558572Y-99830714D01*
D13*
X150826000Y-81334000D02*
X150826000Y-61334000D01*
X116826000Y-61334000D02*
X116826000Y-81334000D01*
X116826000Y-81334000D02*
X150826000Y-81334000D01*
X150826000Y-61334000D02*
X116826000Y-61334000D01*
D14*
X158988639Y-70183306D02*
G75*
G03X158991300Y-62917800I-1508639J3633306D01*
G01*
X155970597Y-62891616D02*
G75*
G03X155968700Y-70207600I1509403J-3658384D01*
G01*
X160909000Y-70741000D02*
X158991300Y-70741000D01*
X154051000Y-70741000D02*
X155968700Y-70741000D01*
X161671000Y-62359000D02*
X158991300Y-62359000D01*
X153289000Y-62359000D02*
X155968700Y-62359000D01*
X161671000Y-62359000D02*
X161671000Y-69979000D01*
X161671000Y-69979000D02*
X160909000Y-70741000D01*
X154051000Y-70741000D02*
X153289000Y-69979000D01*
X153289000Y-69979000D02*
X153289000Y-62359000D01*
X109308000Y-95984000D02*
X109308000Y-94984000D01*
X107608000Y-94984000D02*
X107608000Y-95984000D01*
X147105000Y-83574000D02*
X147105000Y-84574000D01*
X148805000Y-84574000D02*
X148805000Y-83574000D01*
X150153000Y-83554000D02*
X150153000Y-84554000D01*
X151853000Y-84554000D02*
X151853000Y-83554000D01*
X113983000Y-86412000D02*
X113983000Y-92912000D01*
X113983000Y-86412000D02*
X104083000Y-86412000D01*
X113983000Y-92912000D02*
X104083000Y-92912000D01*
X116130000Y-86321000D02*
X122630000Y-86321000D01*
X116130000Y-86321000D02*
X116130000Y-96221000D01*
X122630000Y-86321000D02*
X122630000Y-96221000D01*
D15*
X160685000Y-87660000D02*
X160685000Y-86898000D01*
X160685000Y-86898000D02*
X144683000Y-86898000D01*
X144683000Y-86898000D02*
X144683000Y-87660000D01*
D14*
X104736000Y-74370000D02*
X104736000Y-67870000D01*
X104736000Y-74370000D02*
X114636000Y-74370000D01*
X104736000Y-67870000D02*
X114636000Y-67870000D01*
X168014000Y-101600000D02*
X168014000Y-96400000D01*
X168014000Y-96400000D02*
X162694000Y-96400000D01*
X162694000Y-96400000D02*
X162694000Y-104260000D01*
X162694000Y-104260000D02*
X165354000Y-104260000D01*
X165354000Y-104260000D02*
X165354000Y-101600000D01*
X165354000Y-101600000D02*
X168014000Y-101600000D01*
X168014000Y-102870000D02*
X168014000Y-104260000D01*
X168014000Y-104260000D02*
X166624000Y-104260000D01*
X101600000Y-100210000D02*
X98940000Y-100210000D01*
X98940000Y-100210000D02*
X98940000Y-102990000D01*
X98940000Y-102990000D02*
X101600000Y-102990000D01*
X101600000Y-102990000D02*
X101600000Y-100210000D01*
X102870000Y-100210000D02*
X104260000Y-100210000D01*
X104260000Y-100210000D02*
X104260000Y-101600000D01*
X109220000Y-102990000D02*
X114420000Y-102990000D01*
X114420000Y-102990000D02*
X114420000Y-100210000D01*
X114420000Y-100210000D02*
X109220000Y-100210000D01*
X109220000Y-100210000D02*
X109220000Y-102990000D01*
X107950000Y-102990000D02*
X106560000Y-102990000D01*
X106560000Y-102990000D02*
X106560000Y-101600000D01*
X142106000Y-100584000D02*
X142106000Y-97924000D01*
X142106000Y-97924000D02*
X139326000Y-97924000D01*
X139326000Y-97924000D02*
X139326000Y-100584000D01*
X139326000Y-100584000D02*
X142106000Y-100584000D01*
X142106000Y-101854000D02*
X142106000Y-103244000D01*
X142106000Y-103244000D02*
X140716000Y-103244000D01*
X101466000Y-90043000D02*
X101466000Y-87383000D01*
X101466000Y-87383000D02*
X98686000Y-87383000D01*
X98686000Y-87383000D02*
X98686000Y-90043000D01*
X98686000Y-90043000D02*
X101466000Y-90043000D01*
X101466000Y-91313000D02*
X101466000Y-92703000D01*
X101466000Y-92703000D02*
X100076000Y-92703000D01*
D16*
X103011000Y-96024000D02*
X103011000Y-94824000D01*
X104761000Y-94824000D02*
X104761000Y-96024000D01*
X116473000Y-102200000D02*
X116473000Y-101000000D01*
X118223000Y-101000000D02*
X118223000Y-102200000D01*
X112155000Y-96024000D02*
X112155000Y-94824000D01*
X113905000Y-94824000D02*
X113905000Y-96024000D01*
X164891000Y-95490000D02*
X163691000Y-95490000D01*
X163691000Y-93740000D02*
X164891000Y-93740000D01*
X164891000Y-93458000D02*
X163691000Y-93458000D01*
X163691000Y-91708000D02*
X164891000Y-91708000D01*
X164938000Y-91426000D02*
X163738000Y-91426000D01*
X163738000Y-89676000D02*
X164938000Y-89676000D01*
X134733000Y-97063000D02*
X134733000Y-98263000D01*
X132983000Y-98263000D02*
X132983000Y-97063000D01*
X155182000Y-81675000D02*
X156382000Y-81675000D01*
X156382000Y-83425000D02*
X155182000Y-83425000D01*
X156382000Y-86092000D02*
X155182000Y-86092000D01*
X155182000Y-84342000D02*
X156382000Y-84342000D01*
D14*
X167446000Y-86685000D02*
X167446000Y-79685000D01*
X163296000Y-86685000D02*
X162296000Y-86685000D01*
X162296000Y-86685000D02*
X162296000Y-79685000D01*
X135255000Y-102990000D02*
X137915000Y-102990000D01*
X137915000Y-102990000D02*
X137915000Y-100210000D01*
X137915000Y-100210000D02*
X135255000Y-100210000D01*
X135255000Y-100210000D02*
X135255000Y-102990000D01*
X133985000Y-102990000D02*
X132595000Y-102990000D01*
X132595000Y-102990000D02*
X132595000Y-101600000D01*
D16*
X125666476Y-64166381D02*
X125666476Y-63166381D01*
X126047429Y-63166381D01*
X126142667Y-63214000D01*
X126190286Y-63261619D01*
X126237905Y-63356857D01*
X126237905Y-63499714D01*
X126190286Y-63594952D01*
X126142667Y-63642571D01*
X126047429Y-63690190D01*
X125666476Y-63690190D01*
X126571238Y-63166381D02*
X126809333Y-64166381D01*
X126999810Y-63452095D01*
X127190286Y-64166381D01*
X127428381Y-63166381D01*
X128380762Y-64166381D02*
X128047428Y-63690190D01*
X127809333Y-64166381D02*
X127809333Y-63166381D01*
X128190286Y-63166381D01*
X128285524Y-63214000D01*
X128333143Y-63261619D01*
X128380762Y-63356857D01*
X128380762Y-63499714D01*
X128333143Y-63594952D01*
X128285524Y-63642571D01*
X128190286Y-63690190D01*
X127809333Y-63690190D01*
X129333143Y-64166381D02*
X128761714Y-64166381D01*
X129047428Y-64166381D02*
X129047428Y-63166381D01*
X128952190Y-63309238D01*
X128856952Y-63404476D01*
X128761714Y-63452095D01*
X98766667Y-78684286D02*
X98766667Y-78208095D01*
X99052381Y-78779524D02*
X98052381Y-78446191D01*
X99052381Y-78112857D01*
X98957143Y-77208095D02*
X99004762Y-77255714D01*
X99052381Y-77398571D01*
X99052381Y-77493809D01*
X99004762Y-77636667D01*
X98909524Y-77731905D01*
X98814286Y-77779524D01*
X98623810Y-77827143D01*
X98480952Y-77827143D01*
X98290476Y-77779524D01*
X98195238Y-77731905D01*
X98100000Y-77636667D01*
X98052381Y-77493809D01*
X98052381Y-77398571D01*
X98100000Y-77255714D01*
X98147619Y-77208095D01*
X99052381Y-76255714D02*
X99052381Y-76827143D01*
X99052381Y-76541429D02*
X98052381Y-76541429D01*
X98195238Y-76636667D01*
X98290476Y-76731905D01*
X98338095Y-76827143D01*
X98766667Y-72334286D02*
X98766667Y-71858095D01*
X99052381Y-72429524D02*
X98052381Y-72096191D01*
X99052381Y-71762857D01*
X98957143Y-70858095D02*
X99004762Y-70905714D01*
X99052381Y-71048571D01*
X99052381Y-71143809D01*
X99004762Y-71286667D01*
X98909524Y-71381905D01*
X98814286Y-71429524D01*
X98623810Y-71477143D01*
X98480952Y-71477143D01*
X98290476Y-71429524D01*
X98195238Y-71381905D01*
X98100000Y-71286667D01*
X98052381Y-71143809D01*
X98052381Y-71048571D01*
X98100000Y-70905714D01*
X98147619Y-70858095D01*
X98147619Y-70477143D02*
X98100000Y-70429524D01*
X98052381Y-70334286D01*
X98052381Y-70096190D01*
X98100000Y-70000952D01*
X98147619Y-69953333D01*
X98242857Y-69905714D01*
X98338095Y-69905714D01*
X98480952Y-69953333D01*
X99052381Y-70524762D01*
X99052381Y-69905714D01*
X98766667Y-65984286D02*
X98766667Y-65508095D01*
X99052381Y-66079524D02*
X98052381Y-65746191D01*
X99052381Y-65412857D01*
X98957143Y-64508095D02*
X99004762Y-64555714D01*
X99052381Y-64698571D01*
X99052381Y-64793809D01*
X99004762Y-64936667D01*
X98909524Y-65031905D01*
X98814286Y-65079524D01*
X98623810Y-65127143D01*
X98480952Y-65127143D01*
X98290476Y-65079524D01*
X98195238Y-65031905D01*
X98100000Y-64936667D01*
X98052381Y-64793809D01*
X98052381Y-64698571D01*
X98100000Y-64555714D01*
X98147619Y-64508095D01*
X98052381Y-64174762D02*
X98052381Y-63555714D01*
X98433333Y-63889048D01*
X98433333Y-63746190D01*
X98480952Y-63650952D01*
X98528571Y-63603333D01*
X98623810Y-63555714D01*
X98861905Y-63555714D01*
X98957143Y-63603333D01*
X99004762Y-63650952D01*
X99052381Y-63746190D01*
X99052381Y-64031905D01*
X99004762Y-64127143D01*
X98957143Y-64174762D01*
X157313334Y-73255143D02*
X157265715Y-73302762D01*
X157122858Y-73350381D01*
X157027620Y-73350381D01*
X156884762Y-73302762D01*
X156789524Y-73207524D01*
X156741905Y-73112286D01*
X156694286Y-72921810D01*
X156694286Y-72778952D01*
X156741905Y-72588476D01*
X156789524Y-72493238D01*
X156884762Y-72398000D01*
X157027620Y-72350381D01*
X157122858Y-72350381D01*
X157265715Y-72398000D01*
X157313334Y-72445619D01*
X158265715Y-73350381D02*
X157694286Y-73350381D01*
X157980000Y-73350381D02*
X157980000Y-72350381D01*
X157884762Y-72493238D01*
X157789524Y-72588476D01*
X157694286Y-72636095D01*
X161463029Y-71706152D02*
X161463029Y-70944247D01*
X161843981Y-71325199D02*
X161082076Y-71325199D01*
X110915143Y-95650666D02*
X110962762Y-95698285D01*
X111010381Y-95841142D01*
X111010381Y-95936380D01*
X110962762Y-96079238D01*
X110867524Y-96174476D01*
X110772286Y-96222095D01*
X110581810Y-96269714D01*
X110438952Y-96269714D01*
X110248476Y-96222095D01*
X110153238Y-96174476D01*
X110058000Y-96079238D01*
X110010381Y-95936380D01*
X110010381Y-95841142D01*
X110058000Y-95698285D01*
X110105619Y-95650666D01*
X110105619Y-95269714D02*
X110058000Y-95222095D01*
X110010381Y-95126857D01*
X110010381Y-94888761D01*
X110058000Y-94793523D01*
X110105619Y-94745904D01*
X110200857Y-94698285D01*
X110296095Y-94698285D01*
X110438952Y-94745904D01*
X111010381Y-95317333D01*
X111010381Y-94698285D01*
X146212143Y-84240666D02*
X146259762Y-84288285D01*
X146307381Y-84431142D01*
X146307381Y-84526380D01*
X146259762Y-84669238D01*
X146164524Y-84764476D01*
X146069286Y-84812095D01*
X145878810Y-84859714D01*
X145735952Y-84859714D01*
X145545476Y-84812095D01*
X145450238Y-84764476D01*
X145355000Y-84669238D01*
X145307381Y-84526380D01*
X145307381Y-84431142D01*
X145355000Y-84288285D01*
X145402619Y-84240666D01*
X145307381Y-83907333D02*
X145307381Y-83288285D01*
X145688333Y-83621619D01*
X145688333Y-83478761D01*
X145735952Y-83383523D01*
X145783571Y-83335904D01*
X145878810Y-83288285D01*
X146116905Y-83288285D01*
X146212143Y-83335904D01*
X146259762Y-83383523D01*
X146307381Y-83478761D01*
X146307381Y-83764476D01*
X146259762Y-83859714D01*
X146212143Y-83907333D01*
X149260143Y-84220666D02*
X149307762Y-84268285D01*
X149355381Y-84411142D01*
X149355381Y-84506380D01*
X149307762Y-84649238D01*
X149212524Y-84744476D01*
X149117286Y-84792095D01*
X148926810Y-84839714D01*
X148783952Y-84839714D01*
X148593476Y-84792095D01*
X148498238Y-84744476D01*
X148403000Y-84649238D01*
X148355381Y-84506380D01*
X148355381Y-84411142D01*
X148403000Y-84268285D01*
X148450619Y-84220666D01*
X148688714Y-83363523D02*
X149355381Y-83363523D01*
X148307762Y-83601619D02*
X149022048Y-83839714D01*
X149022048Y-83220666D01*
X107744905Y-94164381D02*
X107744905Y-93164381D01*
X107983000Y-93164381D01*
X108125858Y-93212000D01*
X108221096Y-93307238D01*
X108268715Y-93402476D01*
X108316334Y-93592952D01*
X108316334Y-93735810D01*
X108268715Y-93926286D01*
X108221096Y-94021524D01*
X108125858Y-94116762D01*
X107983000Y-94164381D01*
X107744905Y-94164381D01*
X109268715Y-94164381D02*
X108697286Y-94164381D01*
X108983000Y-94164381D02*
X108983000Y-93164381D01*
X108887762Y-93307238D01*
X108792524Y-93402476D01*
X108697286Y-93450095D01*
X123882381Y-93035286D02*
X122882381Y-93035286D01*
X122882381Y-92797191D01*
X122930000Y-92654333D01*
X123025238Y-92559095D01*
X123120476Y-92511476D01*
X123310952Y-92463857D01*
X123453810Y-92463857D01*
X123644286Y-92511476D01*
X123739524Y-92559095D01*
X123834762Y-92654333D01*
X123882381Y-92797191D01*
X123882381Y-93035286D01*
X122882381Y-92130524D02*
X122882381Y-91463857D01*
X123882381Y-92130524D01*
X123882381Y-91463857D01*
X123882381Y-90559095D02*
X123882381Y-91130524D01*
X123882381Y-90844810D02*
X122882381Y-90844810D01*
X123025238Y-90940048D01*
X123120476Y-91035286D01*
X123168095Y-91130524D01*
X151017333Y-99242571D02*
X151350667Y-99242571D01*
X151493524Y-99766381D02*
X151017333Y-99766381D01*
X151017333Y-98766381D01*
X151493524Y-98766381D01*
X151874476Y-99718762D02*
X152017333Y-99766381D01*
X152255429Y-99766381D01*
X152350667Y-99718762D01*
X152398286Y-99671143D01*
X152445905Y-99575905D01*
X152445905Y-99480667D01*
X152398286Y-99385429D01*
X152350667Y-99337810D01*
X152255429Y-99290190D01*
X152064952Y-99242571D01*
X151969714Y-99194952D01*
X151922095Y-99147333D01*
X151874476Y-99052095D01*
X151874476Y-98956857D01*
X151922095Y-98861619D01*
X151969714Y-98814000D01*
X152064952Y-98766381D01*
X152303048Y-98766381D01*
X152445905Y-98814000D01*
X152874476Y-99766381D02*
X152874476Y-98766381D01*
X153255429Y-98766381D01*
X153350667Y-98814000D01*
X153398286Y-98861619D01*
X153445905Y-98956857D01*
X153445905Y-99099714D01*
X153398286Y-99194952D01*
X153350667Y-99242571D01*
X153255429Y-99290190D01*
X152874476Y-99290190D01*
X154398286Y-99766381D02*
X153826857Y-99766381D01*
X154112571Y-99766381D02*
X154112571Y-98766381D01*
X154017333Y-98909238D01*
X153922095Y-99004476D01*
X153826857Y-99052095D01*
X108450286Y-66998571D02*
X108116952Y-66998571D01*
X108116952Y-67522381D02*
X108116952Y-66522381D01*
X108593143Y-66522381D01*
X108974095Y-66522381D02*
X108974095Y-67331905D01*
X109021714Y-67427143D01*
X109069333Y-67474762D01*
X109164571Y-67522381D01*
X109355048Y-67522381D01*
X109450286Y-67474762D01*
X109497905Y-67427143D01*
X109545524Y-67331905D01*
X109545524Y-66522381D01*
X109974095Y-67474762D02*
X110116952Y-67522381D01*
X110355048Y-67522381D01*
X110450286Y-67474762D01*
X110497905Y-67427143D01*
X110545524Y-67331905D01*
X110545524Y-67236667D01*
X110497905Y-67141429D01*
X110450286Y-67093810D01*
X110355048Y-67046190D01*
X110164571Y-66998571D01*
X110069333Y-66950952D01*
X110021714Y-66903333D01*
X109974095Y-66808095D01*
X109974095Y-66712857D01*
X110021714Y-66617619D01*
X110069333Y-66570000D01*
X110164571Y-66522381D01*
X110402667Y-66522381D01*
X110545524Y-66570000D01*
X110974095Y-66998571D02*
X111307429Y-66998571D01*
X111450286Y-67522381D02*
X110974095Y-67522381D01*
X110974095Y-66522381D01*
X111450286Y-66522381D01*
X112402667Y-67522381D02*
X111831238Y-67522381D01*
X112116952Y-67522381D02*
X112116952Y-66522381D01*
X112021714Y-66665238D01*
X111926476Y-66760476D01*
X111831238Y-66808095D01*
X168537000Y-101679190D02*
X168489381Y-101774428D01*
X168489381Y-101917285D01*
X168537000Y-102060143D01*
X168632238Y-102155381D01*
X168727476Y-102203000D01*
X168917952Y-102250619D01*
X169060810Y-102250619D01*
X169251286Y-102203000D01*
X169346524Y-102155381D01*
X169441762Y-102060143D01*
X169489381Y-101917285D01*
X169489381Y-101822047D01*
X169441762Y-101679190D01*
X169394143Y-101631571D01*
X169060810Y-101631571D01*
X169060810Y-101822047D01*
X169489381Y-101203000D02*
X168489381Y-101203000D01*
X168489381Y-100822047D01*
X168537000Y-100726809D01*
X168584619Y-100679190D01*
X168679857Y-100631571D01*
X168822714Y-100631571D01*
X168917952Y-100679190D01*
X168965571Y-100726809D01*
X169013190Y-100822047D01*
X169013190Y-101203000D01*
X169489381Y-100203000D02*
X168489381Y-100203000D01*
X168489381Y-99536334D02*
X168489381Y-99345857D01*
X168537000Y-99250619D01*
X168632238Y-99155381D01*
X168822714Y-99107762D01*
X169156048Y-99107762D01*
X169346524Y-99155381D01*
X169441762Y-99250619D01*
X169489381Y-99345857D01*
X169489381Y-99536334D01*
X169441762Y-99631572D01*
X169346524Y-99726810D01*
X169156048Y-99774429D01*
X168822714Y-99774429D01*
X168632238Y-99726810D01*
X168537000Y-99631572D01*
X168489381Y-99536334D01*
X169489381Y-98155381D02*
X169489381Y-98726810D01*
X169489381Y-98441096D02*
X168489381Y-98441096D01*
X168632238Y-98536334D01*
X168727476Y-98631572D01*
X168775095Y-98726810D01*
X98647619Y-104592381D02*
X98647619Y-103592381D01*
X99028572Y-103592381D01*
X99123810Y-103640000D01*
X99171429Y-103687619D01*
X99219048Y-103782857D01*
X99219048Y-103925714D01*
X99171429Y-104020952D01*
X99123810Y-104068571D01*
X99028572Y-104116190D01*
X98647619Y-104116190D01*
X100219048Y-104592381D02*
X99885714Y-104116190D01*
X99647619Y-104592381D02*
X99647619Y-103592381D01*
X100028572Y-103592381D01*
X100123810Y-103640000D01*
X100171429Y-103687619D01*
X100219048Y-103782857D01*
X100219048Y-103925714D01*
X100171429Y-104020952D01*
X100123810Y-104068571D01*
X100028572Y-104116190D01*
X99647619Y-104116190D01*
X100647619Y-104068571D02*
X100980953Y-104068571D01*
X101123810Y-104592381D02*
X100647619Y-104592381D01*
X100647619Y-103592381D01*
X101123810Y-103592381D01*
X102028572Y-104592381D02*
X101552381Y-104592381D01*
X101552381Y-103592381D01*
X102314286Y-104306667D02*
X102790477Y-104306667D01*
X102219048Y-104592381D02*
X102552381Y-103592381D01*
X102885715Y-104592381D01*
X103409524Y-104116190D02*
X103409524Y-104592381D01*
X103076191Y-103592381D02*
X103409524Y-104116190D01*
X103742858Y-103592381D01*
X104600001Y-104592381D02*
X104028572Y-104592381D01*
X104314286Y-104592381D02*
X104314286Y-103592381D01*
X104219048Y-103735238D01*
X104123810Y-103830476D01*
X104028572Y-103878095D01*
X106926524Y-104592381D02*
X106926524Y-103592381D01*
X107307477Y-103592381D01*
X107402715Y-103640000D01*
X107450334Y-103687619D01*
X107497953Y-103782857D01*
X107497953Y-103925714D01*
X107450334Y-104020952D01*
X107402715Y-104068571D01*
X107307477Y-104116190D01*
X106926524Y-104116190D01*
X107878905Y-104544762D02*
X108021762Y-104592381D01*
X108259858Y-104592381D01*
X108355096Y-104544762D01*
X108402715Y-104497143D01*
X108450334Y-104401905D01*
X108450334Y-104306667D01*
X108402715Y-104211429D01*
X108355096Y-104163810D01*
X108259858Y-104116190D01*
X108069381Y-104068571D01*
X107974143Y-104020952D01*
X107926524Y-103973333D01*
X107878905Y-103878095D01*
X107878905Y-103782857D01*
X107926524Y-103687619D01*
X107974143Y-103640000D01*
X108069381Y-103592381D01*
X108307477Y-103592381D01*
X108450334Y-103640000D01*
X108878905Y-104068571D02*
X109212239Y-104068571D01*
X109355096Y-104592381D02*
X108878905Y-104592381D01*
X108878905Y-103592381D01*
X109355096Y-103592381D01*
X109783667Y-104592381D02*
X109783667Y-103592381D01*
X110355096Y-104592381D01*
X110355096Y-103592381D01*
X110783667Y-104544762D02*
X110926524Y-104592381D01*
X111164620Y-104592381D01*
X111259858Y-104544762D01*
X111307477Y-104497143D01*
X111355096Y-104401905D01*
X111355096Y-104306667D01*
X111307477Y-104211429D01*
X111259858Y-104163810D01*
X111164620Y-104116190D01*
X110974143Y-104068571D01*
X110878905Y-104020952D01*
X110831286Y-103973333D01*
X110783667Y-103878095D01*
X110783667Y-103782857D01*
X110831286Y-103687619D01*
X110878905Y-103640000D01*
X110974143Y-103592381D01*
X111212239Y-103592381D01*
X111355096Y-103640000D01*
X111974143Y-103592381D02*
X112164620Y-103592381D01*
X112259858Y-103640000D01*
X112355096Y-103735238D01*
X112402715Y-103925714D01*
X112402715Y-104259048D01*
X112355096Y-104449524D01*
X112259858Y-104544762D01*
X112164620Y-104592381D01*
X111974143Y-104592381D01*
X111878905Y-104544762D01*
X111783667Y-104449524D01*
X111736048Y-104259048D01*
X111736048Y-103925714D01*
X111783667Y-103735238D01*
X111878905Y-103640000D01*
X111974143Y-103592381D01*
X113402715Y-104592381D02*
X113069381Y-104116190D01*
X112831286Y-104592381D02*
X112831286Y-103592381D01*
X113212239Y-103592381D01*
X113307477Y-103640000D01*
X113355096Y-103687619D01*
X113402715Y-103782857D01*
X113402715Y-103925714D01*
X113355096Y-104020952D01*
X113307477Y-104068571D01*
X113212239Y-104116190D01*
X112831286Y-104116190D01*
X114355096Y-104592381D02*
X113783667Y-104592381D01*
X114069381Y-104592381D02*
X114069381Y-103592381D01*
X113974143Y-103735238D01*
X113878905Y-103830476D01*
X113783667Y-103878095D01*
X136715905Y-104696381D02*
X136715905Y-103696381D01*
X137096858Y-103696381D01*
X137192096Y-103744000D01*
X137239715Y-103791619D01*
X137287334Y-103886857D01*
X137287334Y-104029714D01*
X137239715Y-104124952D01*
X137192096Y-104172571D01*
X137096858Y-104220190D01*
X136715905Y-104220190D01*
X137668286Y-104648762D02*
X137811143Y-104696381D01*
X138049239Y-104696381D01*
X138144477Y-104648762D01*
X138192096Y-104601143D01*
X138239715Y-104505905D01*
X138239715Y-104410667D01*
X138192096Y-104315429D01*
X138144477Y-104267810D01*
X138049239Y-104220190D01*
X137858762Y-104172571D01*
X137763524Y-104124952D01*
X137715905Y-104077333D01*
X137668286Y-103982095D01*
X137668286Y-103886857D01*
X137715905Y-103791619D01*
X137763524Y-103744000D01*
X137858762Y-103696381D01*
X138096858Y-103696381D01*
X138239715Y-103744000D01*
X138668286Y-104172571D02*
X139001620Y-104172571D01*
X139144477Y-104696381D02*
X138668286Y-104696381D01*
X138668286Y-103696381D01*
X139144477Y-103696381D01*
X140144477Y-104696381D02*
X139811143Y-104220190D01*
X139573048Y-104696381D02*
X139573048Y-103696381D01*
X139954001Y-103696381D01*
X140049239Y-103744000D01*
X140096858Y-103791619D01*
X140144477Y-103886857D01*
X140144477Y-104029714D01*
X140096858Y-104124952D01*
X140049239Y-104172571D01*
X139954001Y-104220190D01*
X139573048Y-104220190D01*
X140573048Y-104696381D02*
X140573048Y-103696381D01*
X141001619Y-104410667D02*
X141477810Y-104410667D01*
X140906381Y-104696381D02*
X141239714Y-103696381D01*
X141573048Y-104696381D01*
X142382572Y-104696381D02*
X141906381Y-104696381D01*
X141906381Y-103696381D01*
X143239715Y-104696381D02*
X142668286Y-104696381D01*
X142954000Y-104696381D02*
X142954000Y-103696381D01*
X142858762Y-103839238D01*
X142763524Y-103934476D01*
X142668286Y-103982095D01*
X97988381Y-93035048D02*
X96988381Y-93035048D01*
X96988381Y-92654095D01*
X97036000Y-92558857D01*
X97083619Y-92511238D01*
X97178857Y-92463619D01*
X97321714Y-92463619D01*
X97416952Y-92511238D01*
X97464571Y-92558857D01*
X97512190Y-92654095D01*
X97512190Y-93035048D01*
X96988381Y-92035048D02*
X97797905Y-92035048D01*
X97893143Y-91987429D01*
X97940762Y-91939810D01*
X97988381Y-91844572D01*
X97988381Y-91654095D01*
X97940762Y-91558857D01*
X97893143Y-91511238D01*
X97797905Y-91463619D01*
X96988381Y-91463619D01*
X97940762Y-91035048D02*
X97988381Y-90892191D01*
X97988381Y-90654095D01*
X97940762Y-90558857D01*
X97893143Y-90511238D01*
X97797905Y-90463619D01*
X97702667Y-90463619D01*
X97607429Y-90511238D01*
X97559810Y-90558857D01*
X97512190Y-90654095D01*
X97464571Y-90844572D01*
X97416952Y-90939810D01*
X97369333Y-90987429D01*
X97274095Y-91035048D01*
X97178857Y-91035048D01*
X97083619Y-90987429D01*
X97036000Y-90939810D01*
X96988381Y-90844572D01*
X96988381Y-90606476D01*
X97036000Y-90463619D01*
X97702667Y-90082667D02*
X97702667Y-89606476D01*
X97988381Y-90177905D02*
X96988381Y-89844572D01*
X97988381Y-89511238D01*
X97036000Y-88654095D02*
X96988381Y-88749333D01*
X96988381Y-88892190D01*
X97036000Y-89035048D01*
X97131238Y-89130286D01*
X97226476Y-89177905D01*
X97416952Y-89225524D01*
X97559810Y-89225524D01*
X97750286Y-89177905D01*
X97845524Y-89130286D01*
X97940762Y-89035048D01*
X97988381Y-88892190D01*
X97988381Y-88796952D01*
X97940762Y-88654095D01*
X97893143Y-88606476D01*
X97559810Y-88606476D01*
X97559810Y-88796952D01*
X97464571Y-88177905D02*
X97464571Y-87844571D01*
X97988381Y-87701714D02*
X97988381Y-88177905D01*
X96988381Y-88177905D01*
X96988381Y-87701714D01*
X97988381Y-86749333D02*
X97988381Y-87320762D01*
X97988381Y-87035048D02*
X96988381Y-87035048D01*
X97131238Y-87130286D01*
X97226476Y-87225524D01*
X97274095Y-87320762D01*
X106438381Y-95590666D02*
X105962190Y-95924000D01*
X106438381Y-96162095D02*
X105438381Y-96162095D01*
X105438381Y-95781142D01*
X105486000Y-95685904D01*
X105533619Y-95638285D01*
X105628857Y-95590666D01*
X105771714Y-95590666D01*
X105866952Y-95638285D01*
X105914571Y-95685904D01*
X105962190Y-95781142D01*
X105962190Y-96162095D01*
X106438381Y-94638285D02*
X106438381Y-95209714D01*
X106438381Y-94924000D02*
X105438381Y-94924000D01*
X105581238Y-95019238D01*
X105676476Y-95114476D01*
X105724095Y-95209714D01*
X119900381Y-101766666D02*
X119424190Y-102100000D01*
X119900381Y-102338095D02*
X118900381Y-102338095D01*
X118900381Y-101957142D01*
X118948000Y-101861904D01*
X118995619Y-101814285D01*
X119090857Y-101766666D01*
X119233714Y-101766666D01*
X119328952Y-101814285D01*
X119376571Y-101861904D01*
X119424190Y-101957142D01*
X119424190Y-102338095D01*
X118995619Y-101385714D02*
X118948000Y-101338095D01*
X118900381Y-101242857D01*
X118900381Y-101004761D01*
X118948000Y-100909523D01*
X118995619Y-100861904D01*
X119090857Y-100814285D01*
X119186095Y-100814285D01*
X119328952Y-100861904D01*
X119900381Y-101433333D01*
X119900381Y-100814285D01*
X115582381Y-95590666D02*
X115106190Y-95924000D01*
X115582381Y-96162095D02*
X114582381Y-96162095D01*
X114582381Y-95781142D01*
X114630000Y-95685904D01*
X114677619Y-95638285D01*
X114772857Y-95590666D01*
X114915714Y-95590666D01*
X115010952Y-95638285D01*
X115058571Y-95685904D01*
X115106190Y-95781142D01*
X115106190Y-96162095D01*
X114582381Y-95257333D02*
X114582381Y-94638285D01*
X114963333Y-94971619D01*
X114963333Y-94828761D01*
X115010952Y-94733523D01*
X115058571Y-94685904D01*
X115153810Y-94638285D01*
X115391905Y-94638285D01*
X115487143Y-94685904D01*
X115534762Y-94733523D01*
X115582381Y-94828761D01*
X115582381Y-95114476D01*
X115534762Y-95209714D01*
X115487143Y-95257333D01*
X167838381Y-94781666D02*
X167362190Y-95115000D01*
X167838381Y-95353095D02*
X166838381Y-95353095D01*
X166838381Y-94972142D01*
X166886000Y-94876904D01*
X166933619Y-94829285D01*
X167028857Y-94781666D01*
X167171714Y-94781666D01*
X167266952Y-94829285D01*
X167314571Y-94876904D01*
X167362190Y-94972142D01*
X167362190Y-95353095D01*
X167171714Y-93924523D02*
X167838381Y-93924523D01*
X166790762Y-94162619D02*
X167505048Y-94400714D01*
X167505048Y-93781666D01*
X167838381Y-92622666D02*
X167362190Y-92956000D01*
X167838381Y-93194095D02*
X166838381Y-93194095D01*
X166838381Y-92813142D01*
X166886000Y-92717904D01*
X166933619Y-92670285D01*
X167028857Y-92622666D01*
X167171714Y-92622666D01*
X167266952Y-92670285D01*
X167314571Y-92717904D01*
X167362190Y-92813142D01*
X167362190Y-93194095D01*
X166838381Y-91717904D02*
X166838381Y-92194095D01*
X167314571Y-92241714D01*
X167266952Y-92194095D01*
X167219333Y-92098857D01*
X167219333Y-91860761D01*
X167266952Y-91765523D01*
X167314571Y-91717904D01*
X167409810Y-91670285D01*
X167647905Y-91670285D01*
X167743143Y-91717904D01*
X167790762Y-91765523D01*
X167838381Y-91860761D01*
X167838381Y-92098857D01*
X167790762Y-92194095D01*
X167743143Y-92241714D01*
X167918381Y-90590666D02*
X167442190Y-90924000D01*
X167918381Y-91162095D02*
X166918381Y-91162095D01*
X166918381Y-90781142D01*
X166966000Y-90685904D01*
X167013619Y-90638285D01*
X167108857Y-90590666D01*
X167251714Y-90590666D01*
X167346952Y-90638285D01*
X167394571Y-90685904D01*
X167442190Y-90781142D01*
X167442190Y-91162095D01*
X166918381Y-89733523D02*
X166918381Y-89924000D01*
X166966000Y-90019238D01*
X167013619Y-90066857D01*
X167156476Y-90162095D01*
X167346952Y-90209714D01*
X167727905Y-90209714D01*
X167823143Y-90162095D01*
X167870762Y-90114476D01*
X167918381Y-90019238D01*
X167918381Y-89828761D01*
X167870762Y-89733523D01*
X167823143Y-89685904D01*
X167727905Y-89638285D01*
X167489810Y-89638285D01*
X167394571Y-89685904D01*
X167346952Y-89733523D01*
X167299333Y-89828761D01*
X167299333Y-90019238D01*
X167346952Y-90114476D01*
X167394571Y-90162095D01*
X167489810Y-90209714D01*
X132210381Y-97829666D02*
X131734190Y-98163000D01*
X132210381Y-98401095D02*
X131210381Y-98401095D01*
X131210381Y-98020142D01*
X131258000Y-97924904D01*
X131305619Y-97877285D01*
X131400857Y-97829666D01*
X131543714Y-97829666D01*
X131638952Y-97877285D01*
X131686571Y-97924904D01*
X131734190Y-98020142D01*
X131734190Y-98401095D01*
X131210381Y-97496333D02*
X131210381Y-96829666D01*
X132210381Y-97258238D01*
X152979381Y-82716666D02*
X152503190Y-83050000D01*
X152979381Y-83288095D02*
X151979381Y-83288095D01*
X151979381Y-82907142D01*
X152027000Y-82811904D01*
X152074619Y-82764285D01*
X152169857Y-82716666D01*
X152312714Y-82716666D01*
X152407952Y-82764285D01*
X152455571Y-82811904D01*
X152503190Y-82907142D01*
X152503190Y-83288095D01*
X152407952Y-82145238D02*
X152360333Y-82240476D01*
X152312714Y-82288095D01*
X152217476Y-82335714D01*
X152169857Y-82335714D01*
X152074619Y-82288095D01*
X152027000Y-82240476D01*
X151979381Y-82145238D01*
X151979381Y-81954761D01*
X152027000Y-81859523D01*
X152074619Y-81811904D01*
X152169857Y-81764285D01*
X152217476Y-81764285D01*
X152312714Y-81811904D01*
X152360333Y-81859523D01*
X152407952Y-81954761D01*
X152407952Y-82145238D01*
X152455571Y-82240476D01*
X152503190Y-82288095D01*
X152598429Y-82335714D01*
X152788905Y-82335714D01*
X152884143Y-82288095D01*
X152931762Y-82240476D01*
X152979381Y-82145238D01*
X152979381Y-81954761D01*
X152931762Y-81859523D01*
X152884143Y-81811904D01*
X152788905Y-81764285D01*
X152598429Y-81764285D01*
X152503190Y-81811904D01*
X152455571Y-81859523D01*
X152407952Y-81954761D01*
X153106381Y-85383666D02*
X152630190Y-85717000D01*
X153106381Y-85955095D02*
X152106381Y-85955095D01*
X152106381Y-85574142D01*
X152154000Y-85478904D01*
X152201619Y-85431285D01*
X152296857Y-85383666D01*
X152439714Y-85383666D01*
X152534952Y-85431285D01*
X152582571Y-85478904D01*
X152630190Y-85574142D01*
X152630190Y-85955095D01*
X153106381Y-84907476D02*
X153106381Y-84717000D01*
X153058762Y-84621761D01*
X153011143Y-84574142D01*
X152868286Y-84478904D01*
X152677810Y-84431285D01*
X152296857Y-84431285D01*
X152201619Y-84478904D01*
X152154000Y-84526523D01*
X152106381Y-84621761D01*
X152106381Y-84812238D01*
X152154000Y-84907476D01*
X152201619Y-84955095D01*
X152296857Y-85002714D01*
X152534952Y-85002714D01*
X152630190Y-84955095D01*
X152677810Y-84907476D01*
X152725429Y-84812238D01*
X152725429Y-84621761D01*
X152677810Y-84526523D01*
X152630190Y-84478904D01*
X152534952Y-84431285D01*
X161798381Y-84351666D02*
X161322190Y-84685000D01*
X161798381Y-84923095D02*
X160798381Y-84923095D01*
X160798381Y-84542142D01*
X160846000Y-84446904D01*
X160893619Y-84399285D01*
X160988857Y-84351666D01*
X161131714Y-84351666D01*
X161226952Y-84399285D01*
X161274571Y-84446904D01*
X161322190Y-84542142D01*
X161322190Y-84923095D01*
X160846000Y-83399285D02*
X160798381Y-83494523D01*
X160798381Y-83637380D01*
X160846000Y-83780238D01*
X160941238Y-83875476D01*
X161036476Y-83923095D01*
X161226952Y-83970714D01*
X161369810Y-83970714D01*
X161560286Y-83923095D01*
X161655524Y-83875476D01*
X161750762Y-83780238D01*
X161798381Y-83637380D01*
X161798381Y-83542142D01*
X161750762Y-83399285D01*
X161703143Y-83351666D01*
X161369810Y-83351666D01*
X161369810Y-83542142D01*
X161274571Y-82589761D02*
X161322190Y-82446904D01*
X161369810Y-82399285D01*
X161465048Y-82351666D01*
X161607905Y-82351666D01*
X161703143Y-82399285D01*
X161750762Y-82446904D01*
X161798381Y-82542142D01*
X161798381Y-82923095D01*
X160798381Y-82923095D01*
X160798381Y-82589761D01*
X160846000Y-82494523D01*
X160893619Y-82446904D01*
X160988857Y-82399285D01*
X161084095Y-82399285D01*
X161179333Y-82446904D01*
X161226952Y-82494523D01*
X161274571Y-82589761D01*
X161274571Y-82923095D01*
X161798381Y-81399285D02*
X161798381Y-81970714D01*
X161798381Y-81685000D02*
X160798381Y-81685000D01*
X160941238Y-81780238D01*
X161036476Y-81875476D01*
X161084095Y-81970714D01*
X131999762Y-102933333D02*
X132047381Y-102790476D01*
X132047381Y-102552380D01*
X131999762Y-102457142D01*
X131952143Y-102409523D01*
X131856905Y-102361904D01*
X131761667Y-102361904D01*
X131666429Y-102409523D01*
X131618810Y-102457142D01*
X131571190Y-102552380D01*
X131523571Y-102742857D01*
X131475952Y-102838095D01*
X131428333Y-102885714D01*
X131333095Y-102933333D01*
X131237857Y-102933333D01*
X131142619Y-102885714D01*
X131095000Y-102838095D01*
X131047381Y-102742857D01*
X131047381Y-102504761D01*
X131095000Y-102361904D01*
X131047381Y-102028571D02*
X132047381Y-101790476D01*
X131333095Y-101599999D01*
X132047381Y-101409523D01*
X131047381Y-101171428D01*
X132047381Y-100266666D02*
X132047381Y-100838095D01*
X132047381Y-100552381D02*
X131047381Y-100552381D01*
X131190238Y-100647619D01*
X131285476Y-100742857D01*
X131333095Y-100838095D01*
X164401714Y-69087381D02*
X164401714Y-68087381D01*
X164735048Y-68801667D01*
X165068381Y-68087381D01*
X165068381Y-69087381D01*
X165544571Y-69087381D02*
X165544571Y-68087381D01*
X166116000Y-69087381D01*
X166116000Y-68087381D01*
X166449333Y-68087381D02*
X167020762Y-68087381D01*
X166735047Y-69087381D02*
X166735047Y-68087381D01*
X167877905Y-69087381D02*
X167306476Y-69087381D01*
X167592190Y-69087381D02*
X167592190Y-68087381D01*
X167496952Y-68230238D01*
X167401714Y-68325476D01*
X167306476Y-68373095D01*
M02*
