G04 #@! TF.FileFunction,Soldermask,Bot*
%FSLAX46Y46*%
G04 Gerber Fmt 4.6, Leading zero omitted, Abs format (unit mm)*
G04 Created by KiCad (PCBNEW 4.0.5) date Friday, 17 February 2017 'PMt' 12:17:44 PM*
%MOMM*%
%LPD*%
G01*
G04 APERTURE LIST*
%ADD10C,0.100000*%
%ADD11C,2.200000*%
%ADD12C,3.000000*%
%ADD13R,3.000000X3.000000*%
%ADD14R,2.500000X1.100000*%
%ADD15O,2.500000X1.100000*%
%ADD16R,1.700000X1.700000*%
%ADD17O,1.700000X1.700000*%
%ADD18C,3.500000*%
G04 APERTURE END LIST*
D10*
D11*
X119126000Y-68834000D03*
X119126000Y-73834000D03*
X148526000Y-63634000D03*
X148526000Y-79034000D03*
D12*
X101600000Y-77470000D03*
X101600000Y-71120000D03*
D13*
X101600000Y-64770000D03*
D14*
X160369000Y-102519000D03*
D15*
X160369000Y-100519000D03*
X160369000Y-98519000D03*
X160369000Y-96519000D03*
X160369000Y-94519000D03*
X160369000Y-92519000D03*
X160369000Y-90519000D03*
X160369000Y-88519000D03*
X144969000Y-88519000D03*
X145069000Y-90519000D03*
X144969000Y-92519000D03*
X144969000Y-94519000D03*
X144969000Y-96519000D03*
X144969000Y-98519000D03*
X144969000Y-100519000D03*
X144969000Y-102519000D03*
D16*
X166624000Y-102870000D03*
D17*
X164084000Y-102870000D03*
X166624000Y-100330000D03*
X164084000Y-100330000D03*
X166624000Y-97790000D03*
X164084000Y-97790000D03*
D16*
X102870000Y-101600000D03*
D17*
X100330000Y-101600000D03*
D16*
X107950000Y-101600000D03*
D17*
X110490000Y-101600000D03*
X113030000Y-101600000D03*
D16*
X140716000Y-101854000D03*
D17*
X140716000Y-99314000D03*
D16*
X100076000Y-91313000D03*
D17*
X100076000Y-88773000D03*
D16*
X133985000Y-101600000D03*
D17*
X136525000Y-101600000D03*
D18*
X166116000Y-64135000D03*
M02*
