M48
;DRILL file {KiCad 4.0.5} date Friday, 17 February 2017 'PMt' 12:17:50 PM
;FORMAT={-:-/ absolute / inch / decimal}
FMAT,2
INCH,TZ
T1C0.016
T2C0.026
T3C0.039
T4C0.049
T5C0.059
%
G90
G05
M72
T1
X4.0908Y-3.81
X4.27Y-3.8092
X4.45Y-3.81
X4.7Y-3.741
X5.27Y-3.6891
X5.57Y-3.3891
X5.825Y-3.2608
X5.825Y-3.3592
X6.08Y-3.25
X6.12Y-3.945
X6.1863Y-3.355
X6.2Y-2.5
X6.2862Y-3.9574
T2
X5.735Y-3.485
X5.735Y-3.5637
X5.735Y-3.6425
X5.735Y-3.7212
X5.735Y-3.8
X5.735Y-3.8787
X5.735Y-3.9574
X5.735Y-4.0362
X6.2862Y-3.485
X6.2862Y-3.5637
X6.2862Y-3.6425
X6.2862Y-3.7212
X6.2862Y-3.8
X6.2862Y-3.8787
X6.2862Y-3.9574
X6.2862Y-4.0362
T3
X3.94Y-3.495
X3.94Y-3.595
X3.95Y-4.
X4.05Y-4.
X4.25Y-4.
X4.35Y-4.
X4.45Y-4.
X5.275Y-4.
X5.375Y-4.
X5.54Y-3.91
X5.54Y-4.01
X6.46Y-3.85
X6.46Y-3.95
X6.46Y-4.05
X6.56Y-3.85
X6.56Y-3.95
X6.56Y-4.05
T4
X4.69Y-2.71
X4.69Y-2.9069
X5.8475Y-2.5053
X5.8475Y-3.1116
T5
X4.Y-2.55
X4.Y-2.8
X4.Y-3.05
T0
M30
