G04 #@! TF.FileFunction,Legend,Bot*
%FSLAX46Y46*%
G04 Gerber Fmt 4.6, Leading zero omitted, Abs format (unit mm)*
G04 Created by KiCad (PCBNEW 4.0.5) date Friday, 17 February 2017 'PMt' 12:17:44 PM*
%MOMM*%
%LPD*%
G01*
G04 APERTURE LIST*
%ADD10C,0.100000*%
%ADD11C,0.300000*%
G04 APERTURE END LIST*
D10*
D11*
X140865856Y-90081571D02*
X140865856Y-88581571D01*
X140294428Y-88581571D01*
X140151570Y-88653000D01*
X140080142Y-88724429D01*
X140008713Y-88867286D01*
X140008713Y-89081571D01*
X140080142Y-89224429D01*
X140151570Y-89295857D01*
X140294428Y-89367286D01*
X140865856Y-89367286D01*
X139365856Y-90081571D02*
X139365856Y-88581571D01*
X138651570Y-90081571D02*
X138651570Y-88581571D01*
X138294427Y-88581571D01*
X138080142Y-88653000D01*
X137937284Y-88795857D01*
X137865856Y-88938714D01*
X137794427Y-89224429D01*
X137794427Y-89438714D01*
X137865856Y-89724429D01*
X137937284Y-89867286D01*
X138080142Y-90010143D01*
X138294427Y-90081571D01*
X138651570Y-90081571D01*
X135151570Y-89938714D02*
X135222999Y-90010143D01*
X135437285Y-90081571D01*
X135580142Y-90081571D01*
X135794427Y-90010143D01*
X135937285Y-89867286D01*
X136008713Y-89724429D01*
X136080142Y-89438714D01*
X136080142Y-89224429D01*
X136008713Y-88938714D01*
X135937285Y-88795857D01*
X135794427Y-88653000D01*
X135580142Y-88581571D01*
X135437285Y-88581571D01*
X135222999Y-88653000D01*
X135151570Y-88724429D01*
X134294427Y-90081571D02*
X134437285Y-90010143D01*
X134508713Y-89938714D01*
X134580142Y-89795857D01*
X134580142Y-89367286D01*
X134508713Y-89224429D01*
X134437285Y-89153000D01*
X134294427Y-89081571D01*
X134080142Y-89081571D01*
X133937285Y-89153000D01*
X133865856Y-89224429D01*
X133794427Y-89367286D01*
X133794427Y-89795857D01*
X133865856Y-89938714D01*
X133937285Y-90010143D01*
X134080142Y-90081571D01*
X134294427Y-90081571D01*
X133151570Y-89081571D02*
X133151570Y-90081571D01*
X133151570Y-89224429D02*
X133080142Y-89153000D01*
X132937284Y-89081571D01*
X132722999Y-89081571D01*
X132580142Y-89153000D01*
X132508713Y-89295857D01*
X132508713Y-90081571D01*
X132008713Y-89081571D02*
X131437284Y-89081571D01*
X131794427Y-88581571D02*
X131794427Y-89867286D01*
X131722999Y-90010143D01*
X131580141Y-90081571D01*
X131437284Y-90081571D01*
X130937284Y-90081571D02*
X130937284Y-89081571D01*
X130937284Y-89367286D02*
X130865856Y-89224429D01*
X130794427Y-89153000D01*
X130651570Y-89081571D01*
X130508713Y-89081571D01*
X129794427Y-90081571D02*
X129937285Y-90010143D01*
X130008713Y-89938714D01*
X130080142Y-89795857D01*
X130080142Y-89367286D01*
X130008713Y-89224429D01*
X129937285Y-89153000D01*
X129794427Y-89081571D01*
X129580142Y-89081571D01*
X129437285Y-89153000D01*
X129365856Y-89224429D01*
X129294427Y-89367286D01*
X129294427Y-89795857D01*
X129365856Y-89938714D01*
X129437285Y-90010143D01*
X129580142Y-90081571D01*
X129794427Y-90081571D01*
X128437284Y-90081571D02*
X128580142Y-90010143D01*
X128651570Y-89867286D01*
X128651570Y-88581571D01*
X127651570Y-90081571D02*
X127794428Y-90010143D01*
X127865856Y-89867286D01*
X127865856Y-88581571D01*
X126508714Y-90010143D02*
X126651571Y-90081571D01*
X126937285Y-90081571D01*
X127080142Y-90010143D01*
X127151571Y-89867286D01*
X127151571Y-89295857D01*
X127080142Y-89153000D01*
X126937285Y-89081571D01*
X126651571Y-89081571D01*
X126508714Y-89153000D01*
X126437285Y-89295857D01*
X126437285Y-89438714D01*
X127151571Y-89581571D01*
X125794428Y-90081571D02*
X125794428Y-89081571D01*
X125794428Y-89367286D02*
X125723000Y-89224429D01*
X125651571Y-89153000D01*
X125508714Y-89081571D01*
X125365857Y-89081571D01*
X136330142Y-92631571D02*
X136830142Y-91917286D01*
X137187285Y-92631571D02*
X137187285Y-91131571D01*
X136615857Y-91131571D01*
X136472999Y-91203000D01*
X136401571Y-91274429D01*
X136330142Y-91417286D01*
X136330142Y-91631571D01*
X136401571Y-91774429D01*
X136472999Y-91845857D01*
X136615857Y-91917286D01*
X137187285Y-91917286D01*
X135115857Y-92560143D02*
X135258714Y-92631571D01*
X135544428Y-92631571D01*
X135687285Y-92560143D01*
X135758714Y-92417286D01*
X135758714Y-91845857D01*
X135687285Y-91703000D01*
X135544428Y-91631571D01*
X135258714Y-91631571D01*
X135115857Y-91703000D01*
X135044428Y-91845857D01*
X135044428Y-91988714D01*
X135758714Y-92131571D01*
X134544428Y-91631571D02*
X134187285Y-92631571D01*
X133830143Y-91631571D01*
X131830143Y-91131571D02*
X131687286Y-91131571D01*
X131544429Y-91203000D01*
X131473000Y-91274429D01*
X131401571Y-91417286D01*
X131330143Y-91703000D01*
X131330143Y-92060143D01*
X131401571Y-92345857D01*
X131473000Y-92488714D01*
X131544429Y-92560143D01*
X131687286Y-92631571D01*
X131830143Y-92631571D01*
X131973000Y-92560143D01*
X132044429Y-92488714D01*
X132115857Y-92345857D01*
X132187286Y-92060143D01*
X132187286Y-91703000D01*
X132115857Y-91417286D01*
X132044429Y-91274429D01*
X131973000Y-91203000D01*
X131830143Y-91131571D01*
X130687286Y-92488714D02*
X130615858Y-92560143D01*
X130687286Y-92631571D01*
X130758715Y-92560143D01*
X130687286Y-92488714D01*
X130687286Y-92631571D01*
X129187286Y-92631571D02*
X130044429Y-92631571D01*
X129615857Y-92631571D02*
X129615857Y-91131571D01*
X129758714Y-91345857D01*
X129901572Y-91488714D01*
X130044429Y-91560143D01*
X125567143Y-71370000D02*
X124852857Y-71370000D01*
X125710000Y-71798571D02*
X125210000Y-70298571D01*
X124710000Y-71798571D01*
X123352857Y-71655714D02*
X123424286Y-71727143D01*
X123638572Y-71798571D01*
X123781429Y-71798571D01*
X123995714Y-71727143D01*
X124138572Y-71584286D01*
X124210000Y-71441429D01*
X124281429Y-71155714D01*
X124281429Y-70941429D01*
X124210000Y-70655714D01*
X124138572Y-70512857D01*
X123995714Y-70370000D01*
X123781429Y-70298571D01*
X123638572Y-70298571D01*
X123424286Y-70370000D01*
X123352857Y-70441429D01*
M02*
