G04 #@! TF.FileFunction,Copper,L2,Bot,Signal*
%FSLAX46Y46*%
G04 Gerber Fmt 4.6, Leading zero omitted, Abs format (unit mm)*
G04 Created by KiCad (PCBNEW 4.0.5) date Friday, 17 February 2017 'PMt' 12:17:44 PM*
%MOMM*%
%LPD*%
G01*
G04 APERTURE LIST*
%ADD10C,0.100000*%
%ADD11C,2.200000*%
%ADD12C,3.000000*%
%ADD13R,3.000000X3.000000*%
%ADD14R,2.500000X1.100000*%
%ADD15O,2.500000X1.100000*%
%ADD16R,1.700000X1.700000*%
%ADD17O,1.700000X1.700000*%
%ADD18C,0.600000*%
%ADD19C,1.000000*%
%ADD20C,1.200000*%
%ADD21C,0.600000*%
%ADD22C,0.500000*%
%ADD23C,0.254000*%
G04 APERTURE END LIST*
D10*
D11*
X119126000Y-68834000D03*
X119126000Y-73834000D03*
X148526000Y-63634000D03*
X148526000Y-79034000D03*
D12*
X101600000Y-77470000D03*
X101600000Y-71120000D03*
D13*
X101600000Y-64770000D03*
D14*
X160369000Y-102519000D03*
D15*
X160369000Y-100519000D03*
X160369000Y-98519000D03*
X160369000Y-96519000D03*
X160369000Y-94519000D03*
X160369000Y-92519000D03*
X160369000Y-90519000D03*
X160369000Y-88519000D03*
X144969000Y-88519000D03*
X145069000Y-90519000D03*
X144969000Y-92519000D03*
X144969000Y-94519000D03*
X144969000Y-96519000D03*
X144969000Y-98519000D03*
X144969000Y-100519000D03*
X144969000Y-102519000D03*
D16*
X166624000Y-102870000D03*
D17*
X164084000Y-102870000D03*
X166624000Y-100330000D03*
X164084000Y-100330000D03*
X166624000Y-97790000D03*
X164084000Y-97790000D03*
D16*
X102870000Y-101600000D03*
D17*
X100330000Y-101600000D03*
D16*
X107950000Y-101600000D03*
D17*
X110490000Y-101600000D03*
X113030000Y-101600000D03*
D16*
X140716000Y-101854000D03*
D17*
X140716000Y-99314000D03*
D16*
X100076000Y-91313000D03*
D17*
X100076000Y-88773000D03*
D16*
X133985000Y-101600000D03*
D17*
X136525000Y-101600000D03*
D18*
X133858000Y-93702000D03*
X141478000Y-86082000D03*
X157132000Y-85217000D03*
X147955000Y-82824000D03*
X154432000Y-82550000D03*
X119380000Y-95021000D03*
X147955000Y-85324000D03*
D19*
X157480000Y-63500000D03*
D18*
X103906000Y-96774000D03*
X108458000Y-96754000D03*
X113030000Y-96774000D03*
X155448000Y-100203000D03*
X159669000Y-100519000D03*
D20*
X141478000Y-86082000D02*
X133858000Y-93702000D01*
X155312366Y-87376000D02*
X156455366Y-88519000D01*
X151384000Y-83447634D02*
X155312366Y-87376000D01*
X155312366Y-87376000D02*
X155312366Y-87036634D01*
X155312366Y-87036634D02*
X157132000Y-85217000D01*
X148526000Y-80589634D02*
X148526000Y-82253000D01*
X148526000Y-82253000D02*
X147955000Y-82824000D01*
X148526000Y-80589634D02*
X151384000Y-83447634D01*
X154432000Y-82550000D02*
X152482000Y-82550000D01*
X152482000Y-82550000D02*
X151584366Y-83447634D01*
X151584366Y-83447634D02*
X151384000Y-83447634D01*
X148526000Y-79034000D02*
X148526000Y-80589634D01*
X156455366Y-88519000D02*
X159669000Y-88519000D01*
X145669000Y-85344000D02*
X145669000Y-69977000D01*
X145669000Y-69977000D02*
X145669000Y-66491000D01*
X164084000Y-88392000D02*
X156711990Y-81019990D01*
X156711990Y-81019990D02*
X145669000Y-69977000D01*
X164084000Y-97790000D02*
X164084000Y-88392000D01*
X164084000Y-100330000D02*
X164084000Y-97790000D01*
X164084000Y-102870000D02*
X164084000Y-100330000D01*
X113030000Y-96774000D02*
X119380000Y-96774000D01*
X119380000Y-96774000D02*
X136020950Y-96774000D01*
X119380000Y-95021000D02*
X119380000Y-96774000D01*
X100330000Y-101600000D02*
X100330000Y-100397919D01*
X100330000Y-100397919D02*
X100076000Y-100143919D01*
X100076000Y-100143919D02*
X100076000Y-97790000D01*
X110490000Y-101600000D02*
X110490000Y-100397919D01*
X110490000Y-100397919D02*
X110490000Y-96754000D01*
X136020950Y-96774000D02*
X136525000Y-97278050D01*
X136525000Y-97278050D02*
X136525000Y-101600000D01*
X136020950Y-96774000D02*
X144275950Y-88519000D01*
X144275950Y-88519000D02*
X145669000Y-88519000D01*
X145669000Y-88519000D02*
X145669000Y-85344000D01*
X145669000Y-85344000D02*
X147935000Y-85344000D01*
X147935000Y-85344000D02*
X147955000Y-85324000D01*
X145669000Y-66491000D02*
X148526000Y-63634000D01*
X108458000Y-96754000D02*
X110490000Y-96754000D01*
X110490000Y-96754000D02*
X113010000Y-96754000D01*
X113010000Y-96754000D02*
X113030000Y-96774000D01*
X103906000Y-96774000D02*
X108438000Y-96774000D01*
X108438000Y-96774000D02*
X108458000Y-96754000D01*
X100076000Y-91313000D02*
X100076000Y-96774000D01*
X103906000Y-96774000D02*
X100076000Y-96774000D01*
X100076000Y-96774000D02*
X100076000Y-97790000D01*
X100096000Y-97770000D02*
X100076000Y-97790000D01*
X148526000Y-63634000D02*
X150081634Y-63634000D01*
X150081634Y-63634000D02*
X150215634Y-63500000D01*
X150215634Y-63500000D02*
X151130000Y-63500000D01*
X151130000Y-63500000D02*
X157480000Y-63500000D01*
D21*
X159669000Y-100519000D02*
X155764000Y-100519000D01*
X155764000Y-100519000D02*
X155448000Y-100203000D01*
X166624000Y-100330000D02*
X167974001Y-101680001D01*
X151500001Y-104350001D02*
X145669000Y-98519000D01*
X167974001Y-101680001D02*
X167974001Y-104120001D01*
X167974001Y-104120001D02*
X167744001Y-104350001D01*
X167744001Y-104350001D02*
X151500001Y-104350001D01*
X140716000Y-99314000D02*
X141565999Y-100163999D01*
X141565999Y-100163999D02*
X145313999Y-100163999D01*
X145313999Y-100163999D02*
X145669000Y-100519000D01*
D22*
X140716000Y-101854000D02*
X145004000Y-101854000D01*
X145004000Y-101854000D02*
X145669000Y-102519000D01*
D23*
G36*
X135258497Y-61307993D02*
X136189758Y-61930242D01*
X136812007Y-62861503D01*
X137033000Y-63972509D01*
X137033000Y-79099465D01*
X136875337Y-79892089D01*
X136433438Y-80553438D01*
X135772089Y-80995337D01*
X134979465Y-81153000D01*
X100802509Y-81153000D01*
X99691503Y-80932007D01*
X98760242Y-80309758D01*
X98137993Y-79378497D01*
X97917000Y-78267491D01*
X97917000Y-77990250D01*
X98972545Y-77990250D01*
X99371639Y-78956132D01*
X100109981Y-79695764D01*
X101075165Y-80096543D01*
X102120250Y-80097455D01*
X103086132Y-79698361D01*
X103825764Y-78960019D01*
X104226543Y-77994835D01*
X104227455Y-76949750D01*
X103828361Y-75983868D01*
X103090019Y-75244236D01*
X102124835Y-74843457D01*
X101079750Y-74842545D01*
X100113868Y-75241639D01*
X99374236Y-75979981D01*
X98973457Y-76945165D01*
X98972545Y-77990250D01*
X97917000Y-77990250D01*
X97917000Y-74275034D01*
X116898614Y-74275034D01*
X117236940Y-75093846D01*
X117862858Y-75720858D01*
X118681079Y-76060613D01*
X119567034Y-76061386D01*
X120385846Y-75723060D01*
X121012858Y-75097142D01*
X121352613Y-74278921D01*
X121353386Y-73392966D01*
X121015060Y-72574154D01*
X120389142Y-71947142D01*
X119570921Y-71607387D01*
X118684966Y-71606614D01*
X117866154Y-71944940D01*
X117239142Y-72570858D01*
X116899387Y-73389079D01*
X116898614Y-74275034D01*
X97917000Y-74275034D01*
X97917000Y-71640250D01*
X98972545Y-71640250D01*
X99371639Y-72606132D01*
X100109981Y-73345764D01*
X101075165Y-73746543D01*
X102120250Y-73747455D01*
X103086132Y-73348361D01*
X103825764Y-72610019D01*
X104226543Y-71644835D01*
X104227455Y-70599750D01*
X103828361Y-69633868D01*
X103470153Y-69275034D01*
X116898614Y-69275034D01*
X117236940Y-70093846D01*
X117862858Y-70720858D01*
X118681079Y-71060613D01*
X119567034Y-71061386D01*
X120385846Y-70723060D01*
X121012858Y-70097142D01*
X121352613Y-69278921D01*
X121353386Y-68392966D01*
X121015060Y-67574154D01*
X120389142Y-66947142D01*
X119570921Y-66607387D01*
X118684966Y-66606614D01*
X117866154Y-66944940D01*
X117239142Y-67570858D01*
X116899387Y-68389079D01*
X116898614Y-69275034D01*
X103470153Y-69275034D01*
X103090019Y-68894236D01*
X102124835Y-68493457D01*
X101079750Y-68492545D01*
X100113868Y-68891639D01*
X99374236Y-69629981D01*
X98973457Y-70595165D01*
X98972545Y-71640250D01*
X97917000Y-71640250D01*
X97917000Y-63972509D01*
X98137993Y-62861503D01*
X98760242Y-61930242D01*
X99691503Y-61307993D01*
X100802509Y-61087000D01*
X134147491Y-61087000D01*
X135258497Y-61307993D01*
X135258497Y-61307993D01*
G37*
X135258497Y-61307993D02*
X136189758Y-61930242D01*
X136812007Y-62861503D01*
X137033000Y-63972509D01*
X137033000Y-79099465D01*
X136875337Y-79892089D01*
X136433438Y-80553438D01*
X135772089Y-80995337D01*
X134979465Y-81153000D01*
X100802509Y-81153000D01*
X99691503Y-80932007D01*
X98760242Y-80309758D01*
X98137993Y-79378497D01*
X97917000Y-78267491D01*
X97917000Y-77990250D01*
X98972545Y-77990250D01*
X99371639Y-78956132D01*
X100109981Y-79695764D01*
X101075165Y-80096543D01*
X102120250Y-80097455D01*
X103086132Y-79698361D01*
X103825764Y-78960019D01*
X104226543Y-77994835D01*
X104227455Y-76949750D01*
X103828361Y-75983868D01*
X103090019Y-75244236D01*
X102124835Y-74843457D01*
X101079750Y-74842545D01*
X100113868Y-75241639D01*
X99374236Y-75979981D01*
X98973457Y-76945165D01*
X98972545Y-77990250D01*
X97917000Y-77990250D01*
X97917000Y-74275034D01*
X116898614Y-74275034D01*
X117236940Y-75093846D01*
X117862858Y-75720858D01*
X118681079Y-76060613D01*
X119567034Y-76061386D01*
X120385846Y-75723060D01*
X121012858Y-75097142D01*
X121352613Y-74278921D01*
X121353386Y-73392966D01*
X121015060Y-72574154D01*
X120389142Y-71947142D01*
X119570921Y-71607387D01*
X118684966Y-71606614D01*
X117866154Y-71944940D01*
X117239142Y-72570858D01*
X116899387Y-73389079D01*
X116898614Y-74275034D01*
X97917000Y-74275034D01*
X97917000Y-71640250D01*
X98972545Y-71640250D01*
X99371639Y-72606132D01*
X100109981Y-73345764D01*
X101075165Y-73746543D01*
X102120250Y-73747455D01*
X103086132Y-73348361D01*
X103825764Y-72610019D01*
X104226543Y-71644835D01*
X104227455Y-70599750D01*
X103828361Y-69633868D01*
X103470153Y-69275034D01*
X116898614Y-69275034D01*
X117236940Y-70093846D01*
X117862858Y-70720858D01*
X118681079Y-71060613D01*
X119567034Y-71061386D01*
X120385846Y-70723060D01*
X121012858Y-70097142D01*
X121352613Y-69278921D01*
X121353386Y-68392966D01*
X121015060Y-67574154D01*
X120389142Y-66947142D01*
X119570921Y-66607387D01*
X118684966Y-66606614D01*
X117866154Y-66944940D01*
X117239142Y-67570858D01*
X116899387Y-68389079D01*
X116898614Y-69275034D01*
X103470153Y-69275034D01*
X103090019Y-68894236D01*
X102124835Y-68493457D01*
X101079750Y-68492545D01*
X100113868Y-68891639D01*
X99374236Y-69629981D01*
X98973457Y-70595165D01*
X98972545Y-71640250D01*
X97917000Y-71640250D01*
X97917000Y-63972509D01*
X98137993Y-62861503D01*
X98760242Y-61930242D01*
X99691503Y-61307993D01*
X100802509Y-61087000D01*
X134147491Y-61087000D01*
X135258497Y-61307993D01*
M02*
